HIERARCHY
ROOT Hips
{
  OFFSET 13.6774 106.653 -34.4427
  CHANNELS 6 Xposition Yposition Zposition Zrotation Xrotation Yrotation
  JOINT ToSpine
  {
    OFFSET -2.69724 7.43032 -0.144315
    CHANNELS 3 Zrotation Xrotation Yrotation
    JOINT Spine
    {
      OFFSET -0.0310711 10.7595 1.96963
      CHANNELS 3 Zrotation Xrotation Yrotation
      JOINT Spine1
      {
        OFFSET 19.9056 3.91189 0.764692
        CHANNELS 3 Zrotation Xrotation Yrotation
        JOINT Neck
        {
          OFFSET 25.9749 7.03908 -0.130764
          CHANNELS 3 Zrotation Xrotation Yrotation
          JOINT Head
          {
            OFFSET 9.52751 0.295786 -0.907742
            CHANNELS 3 Zrotation Xrotation Yrotation
            End Site
            {
              OFFSET 16.4037 0.713936 2.7358
            }
          }
        }
        JOINT LeftShoulder
        {
          OFFSET 17.7449 4.33886 11.7777
          CHANNELS 3 Zrotation Xrotation Yrotation
          JOINT LeftArm
          {
            OFFSET 0.911315 1.27913 9.80584
            CHANNELS 3 Zrotation Xrotation Yrotation
            JOINT LeftForeArm
            {
              OFFSET 28.6126 1.18197 -3.53199
              CHANNELS 3 Zrotation Xrotation Yrotation
              JOINT LeftHand
              {
                OFFSET 27.5088 0.0218783 0.327423
                CHANNELS 3 Zrotation Xrotation Yrotation
                End Site
                {
                  OFFSET 18.6038 -0.000155887 0.382096
                }
              }
            }
          }
        }
        JOINT RightShoulder
        {
          OFFSET 17.1009 2.89543 -12.2328
          CHANNELS 3 Zrotation Xrotation Yrotation
          JOINT RightArm
          {
            OFFSET 1.4228 0.178766 -10.211
            CHANNELS 3 Zrotation Xrotation Yrotation
            JOINT RightForeArm
            {
              OFFSET 28.733 1.87905 2.64907
              CHANNELS 3 Zrotation Xrotation Yrotation
              JOINT RightHand
              {
                OFFSET 27.4588 0.290562 -0.101845
                CHANNELS 3 Zrotation Xrotation Yrotation
                End Site
                {
                  OFFSET 17.8396 -0.255518 -0.000602873
                }
              }
            }
          }
        }
      }
    }
  }
  JOINT LeftUpLeg
  {
    OFFSET -5.61296 -2.22332 -10.2353
    CHANNELS 3 Zrotation Xrotation Yrotation
    JOINT LeftLeg
    {
      OFFSET 2.56703 -44.7417 -7.93097
      CHANNELS 3 Zrotation Xrotation Yrotation
      JOINT LeftFoot
      {
        OFFSET 3.16933 -46.5642 -3.96578
        CHANNELS 3 Zrotation Xrotation Yrotation
        JOINT LeftToeBase
        {
          OFFSET 0.346054 -6.02161 12.8035
          CHANNELS 3 Zrotation Xrotation Yrotation
          End Site
          {
            OFFSET 0.134235 -1.35082 5.13018
          }
        }
      }
    }
  }
  JOINT RightUpLeg
  {
    OFFSET -5.7928 -1.72406 10.6446
    CHANNELS 3 Zrotation Xrotation Yrotation
    JOINT RightLeg
    {
      OFFSET -2.57161 -44.7178 -7.85259
      CHANNELS 3 Zrotation Xrotation Yrotation
      JOINT RightFoot
      {
        OFFSET -3.10148 -46.5936 -4.03391
        CHANNELS 3 Zrotation Xrotation Yrotation
        JOINT RightToeBase
        {
          OFFSET -0.0828122 -6.13587 12.8035
          CHANNELS 3 Zrotation Xrotation Yrotation
          End Site
          {
            OFFSET -0.131328 -1.35082 5.13018
          }
        }
      }
    }
  }
}
MOTION
Frames: 12
Frame Time: 0.03333333333333333
0.0000 93.1000 0.0000 -47.2391 -28.5661 -171.2426 -71.0010 -0.3627 88.0145 109.7452 67.7303 -26.1792 -4.0041 17.4209 4.8731 -162.3176 31.3410 -180.1223 -152.4713 71.9932 -169.0724 1.0427 -15.0310 -32.2568 -78.9940 46.7870 -69.6656 22.5640 5.5018 -76.0304 -0.5563 -0.6680 0.5182 -2.1674 4.7192 49.0652 -63.5955 -32.7141 66.1355 9.3193 -13.4644 38.0327 0.5223 0.7721 0.8179 -55.0508 5.1906 88.8106 -5.9484 58.6603 -5.0694 -7.6522 4.7502 0.6898 -0.4193 -5.6975 8.2784 -6.3145 -7.4832 78.0398 5.6963 71.3353 -11.7826 -6.5741 -18.8298 0.7008 0.9836 -10.7978 -14.4229 
0.0000 93.1000 0.0000 -49.2014 -23.0300 -173.8826 -71.0028 -0.3438 88.0114 122.0670 67.0659 -36.7965 -5.0124 19.0771 4.3165 -166.1921 30.0022 -178.8478 -148.2285 70.3160 -172.4232 0.2854 -15.0845 -32.9640 -75.0423 49.2081 -70.6832 15.6046 7.1419 -63.9009 -0.1611 -0.3190 0.4269 -2.6291 5.4189 49.8217 -67.0844 -28.4896 72.8304 11.8101 -15.0575 41.0047 0.3736 0.3521 0.2720 -46.9119 4.0522 90.2695 -16.3290 74.9492 3.1566 -7.6095 4.5873 0.9462 0.9968 -8.2831 8.9515 -10.6254 -2.0594 80.2621 6.6538 69.9271 -8.9420 -8.2155 -19.6430 0.9184 2.7303 -18.8654 -21.7322 
0.0000 93.1000 0.0000 -50.1653 -18.4957 -177.3758 -71.0043 -1.0461 88.0069 130.1838 66.7215 -44.2247 -5.3130 21.6138 2.3504 -170.2285 29.2582 -179.0397 -148.4847 68.7433 -173.0952 -0.5105 -15.0921 -34.1216 -70.8435 51.1177 -69.7058 7.1196 7.0811 -53.0993 0.5190 -0.7241 0.7578 -3.1836 5.9764 48.7155 -71.9957 -26.3765 80.8436 15.1041 -14.5648 48.9709 0.7143 0.5578 0.3427 -34.9768 5.6170 92.6412 -122.6773 83.7232 111.4085 -6.1535 3.6980 1.2852 0.5587 -7.1024 10.6243 -17.5824 3.4296 82.0280 6.7473 66.9469 -3.8984 -9.3493 -25.1912 0.9296 4.4570 -18.4498 -29.7549 
0.0000 93.1000 0.0000 -48.5462 -14.0600 -177.7161 -71.0017 0.3887 88.0031 132.7912 68.1411 -46.3301 -6.2157 23.4352 2.2156 -172.2344 28.8471 -178.8015 -148.4348 67.8038 -174.3716 -2.7768 -14.4469 -32.7854 -59.9416 57.5168 -72.6091 5.1308 4.5590 -48.6075 1.3959 1.0243 -0.9660 -4.1402 6.1266 45.1048 -77.7235 -30.3680 86.0539 25.3172 -11.9591 65.0574 -1.0675 -1.5994 -1.5951 -18.2645 7.0816 93.4128 -160.9945 74.7219 152.1864 -4.1761 4.9735 1.4678 2.1476 -5.8739 8.3176 -25.2302 4.3428 82.9723 5.0103 62.1319 -2.0399 -4.6204 -32.7776 2.0098 1.1880 -6.8654 -22.9904 
0.0000 93.1000 0.0000 -46.9259 -10.7499 176.8770 -71.0027 0.0174 88.0103 131.1675 69.6642 -47.9935 -7.4235 25.6571 1.9033 -170.3234 28.4827 179.3866 -144.4999 67.8742 -177.4097 -0.3875 -14.2052 -30.7606 -49.9523 62.0595 -71.8874 5.8572 3.5546 -52.0683 0.0009 0.2811 0.0981 -2.6535 5.9593 40.8985 -78.0706 -36.7778 92.9779 31.8335 -6.0389 80.0079 -0.3276 -0.3221 0.1703 -3.8845 7.1731 97.2009 -163.7073 73.2699 156.6481 -2.5660 4.0692 0.1869 0.7968 -4.2562 6.0883 -32.0463 3.1896 87.2526 3.9598 57.0269 1.0328 -5.5364 -32.5759 2.1306 1.5378 -10.7352 -17.5849 
0.0000 93.1000 0.0000 -48.2323 -8.4005 173.8851 -71.0029 0.3299 88.0096 131.9819 72.5412 -51.3245 -7.9704 27.7493 1.8344 -169.2719 29.2907 178.2705 -146.3975 68.0277 -176.4520 -0.9105 -14.0944 -29.0012 -42.9836 67.2444 -71.6684 5.9350 3.4133 -56.9624 0.0574 0.4895 0.0109 -2.7135 6.3406 37.6219 -77.1091 -40.1784 98.0164 36.6666 0.6450 90.8020 -0.2009 -0.6695 -0.4578 3.2844 6.9005 96.8983 -151.7271 80.0223 145.3147 -3.5102 3.6268 0.6743 1.1232 -5.7996 8.5589 -43.6952 1.1540 89.9586 3.2337 47.2799 3.9835 -5.0436 -21.1313 1.2752 2.1714 -24.0762 -10.6138 
0.0000 93.1000 0.0000 -50.1586 -6.1878 173.1148 -71.0103 -0.3733 88.0141 134.8814 74.4388 -54.2728 -8.2719 28.9801 1.5062 -166.2452 29.6862 177.1436 -147.4576 69.1180 -177.1198 -0.1848 -14.2270 -26.3363 -32.9413 70.9664 -75.5766 5.7815 2.4364 -61.2620 -0.3789 -0.4063 0.2007 -2.2422 6.7458 35.7905 -75.6645 -40.8852 99.0261 37.9453 6.0318 98.1228 0.5729 0.1927 0.4201 5.9100 5.0562 95.9778 -39.1292 83.3081 29.3641 -5.6452 6.3398 1.3588 0.6668 -8.1480 9.1318 -54.8290 -0.3926 90.6370 1.8708 38.1684 3.9735 -2.0768 -1.1798 -0.6106 3.2961 -33.7025 3.9137 
0.0000 93.1000 0.0000 -49.9266 -5.9799 173.1139 -71.0128 -0.3057 88.0123 127.0711 76.7500 -45.1021 -6.0907 30.2558 0.2464 -166.3812 29.0987 177.4814 -149.5932 68.9912 -177.1900 -0.0784 -14.7679 -25.6008 -29.9266 73.4090 -77.6160 5.1856 2.5065 -64.0329 -0.4156 -0.3356 -0.1050 -2.0020 7.0349 33.8920 -74.9829 -41.9308 98.1336 36.6679 8.7945 100.9846 0.1281 0.1888 0.3424 4.6497 3.4529 95.9823 -8.5941 65.4299 -4.5277 -8.6470 8.4421 2.0693 1.7010 -6.8510 10.0106 -62.1820 -2.5793 85.1418 -1.0882 31.8892 16.0650 3.5706 16.4086 -2.2523 1.5963 -20.2661 2.3441 
0.0000 93.1000 0.0000 -49.9487 -4.1645 175.1479 -71.0163 0.1390 88.0093 122.0215 78.2168 -36.0178 -4.5966 30.6701 -0.4420 -164.3619 29.0807 177.4607 -153.4660 68.9163 -172.3255 -0.2347 -14.9696 -25.1160 -32.2490 74.9995 -75.5885 5.7241 1.7764 -65.4897 -0.3073 0.0699 -0.2175 -1.9079 7.0989 32.9833 -74.8607 -41.2351 95.9799 32.1441 7.2125 100.7079 -0.2147 -0.0296 -0.0910 1.2159 2.7319 97.0257 -4.4707 46.1548 -15.5057 -11.3359 11.5226 2.7909 3.2091 -10.1882 12.2702 -67.8224 -1.1129 84.6679 -2.0201 30.2031 22.9818 2.3570 22.5896 -2.7904 2.5614 -10.2818 -17.6004 
0.0000 93.1000 0.0000 -52.1932 -3.3277 176.2319 -71.0079 -0.3105 88.0075 113.8396 78.7369 -27.3653 -3.8133 29.7489 -0.2316 -162.3778 28.8691 175.5271 -151.5805 68.2812 -175.5815 0.2930 -13.8896 -26.3092 -46.7500 73.9566 -63.4912 5.1071 1.6620 -66.9848 -0.1185 -0.4005 -0.0001 -1.8062 6.5508 34.7758 -75.9380 -38.4506 91.7397 29.1892 3.2137 96.0425 0.1168 0.4036 0.2580 -1.6258 3.8249 102.0956 -3.5597 38.3743 -16.7435 -12.5606 11.0402 2.7266 5.3794 -14.0116 10.2036 -68.8272 2.2430 91.4046 0.7574 39.4623 -0.8610 -0.9831 17.7485 -1.9517 0.6489 -6.3368 -3.5317 
0.0000 93.1000 0.0000 -54.0791 -3.3098 178.2438 -71.0113 -0.2769 88.0063 112.9643 78.0443 -27.1038 -3.5746 29.0527 0.8491 -159.3380 28.0763 175.4800 -154.4023 67.9489 -170.4563 0.2726 -13.3689 -28.7542 -56.0478 70.1270 -58.5238 4.0870 1.0690 -67.1865 -0.0431 -0.1737 0.0933 -1.7177 6.1943 36.1436 -78.9788 -36.9054 85.2262 28.0237 -1.2636 87.8983 0.1434 0.3175 -0.0128 -5.2192 4.0625 106.6639 -4.9057 41.0144 -13.1824 -10.8551 8.5365 2.1211 5.6104 -16.4696 11.2888 -67.7145 4.3157 90.1527 1.6973 52.7907 -1.9255 -0.3189 16.1672 -1.9780 1.9159 -4.8751 -12.0968 
0.0000 93.1000 0.0000 -57.1193 -3.9937 179.2794 -71.0089 0.2764 88.0012 116.9157 76.0700 -31.5179 -4.1359 27.1891 2.0490 -156.4321 26.9579 174.3775 -156.1517 66.7219 -167.4709 -0.6635 -13.6796 -30.8462 -68.0682 65.1510 -52.5993 2.7691 1.0903 -67.3747 -0.3410 0.5849 -0.1558 -2.2831 6.1183 39.6875 -79.7826 -34.0946 79.9406 26.5833 -6.1128 78.2389 -0.2445 -0.5645 -0.9711 -11.2418 2.7952 107.1917 -4.7685 46.1082 -17.1072 -8.7922 4.2765 1.6929 5.7205 -15.2500 7.8924 -64.2959 3.8736 87.0646 5.5827 70.3886 -9.7734 -1.8651 16.3681 -1.5119 0.6576 -4.1737 -11.4797 
